# xmcd
#
# Track frame offsets:
# 150
# 15235
# 33090
# 49975
# 52827
# 74375
# 91325
# 110317
# 112410
# 135500
# 140060
# 161950
# 164027
# 181915
# 207820
# 214087
# 227510
# 235400
# 238595
# 241285
# 264925
#
# Disc length: 3698 seconds
#
#
# Revision: 0
# Processed by: cddbd v1.5PL3 Copyright (c) Steve Scherf et al.
# Submitted via: FreeRIP 2.30 
#
DISCID=250e7015
DTITLE=Easy Mo Bee - Now or Never Odyssey 2000
DYEAR=2000
DGENRE=Hip-Hop
TTITLE0=Now Or Never
TTITLE1=Sunstroke
TTITLE2=Fie Fie Delish
TTITLE3=Instrumental No. 1
TTITLE4=Shit's Goin' Down Tonite
TTITLE5=Soul
TTITLE6=Talkin' 'Bout You
TTITLE7=Instrumental No. 3
TTITLE8=N.Y.C.
TTITLE9=69 Monique No. 1
TTITLE10=Sex, Money, Drugs
TTITLE11=Instrumental No. 3
TTITLE12=Sound Of My Heart
TTITLE13=Let's Make A Toast
TTITLE14=69 Monique No. 2
TTITLE15=Make 'Em Bounce
TTITLE16=Dis BEat Is Mine
TTITLE17=Instrumental No. 4
TTITLE18=69 Monique No. 3
TTITLE19=Always Be There For You
TTITLE20=We Pledge Allegiance
EXTD=
EXTT0=
EXTT1=
EXTT2=
EXTT3=
EXTT4=
EXTT5=
EXTT6=
EXTT7=
EXTT8=
EXTT9=
EXTT10=
EXTT11=
EXTT12=
EXTT13=
EXTT14=
EXTT15=
EXTT16=
EXTT17=
EXTT18=
EXTT19=
EXTT20=
PLAYORDER=
